<svg version="1.1" id="Layer_1" xmlns="http://www.w3.org/2000/svg" xmlns:xlink="http://www.w3.org/1999/xlink" x="0px" y="0px"
	 width="100%" viewBox="0 0 512 512" enable-background="new 0 0 512 512" xml:space="preserve">
<path fill="#000000" opacity="1.000000" stroke="none" 
	d="
M80.674416,404.758545 
	C109.215004,326.153107 137.646133,247.921692 166.077972,169.690536 
	C179.440430,132.923248 192.865143,96.178307 206.083572,59.359306 
	C207.584610,55.178276 209.854736,53.742668 214.145279,53.757702 
	C245.639648,53.868046 277.134857,53.862778 308.629211,53.742344 
	C314.047211,53.721626 316.967072,55.755264 318.854797,61.045658 
	C331.720490,97.101791 344.896667,133.047119 357.944885,169.038254 
	C358.786926,171.360947 359.877686,173.645874 359.837677,176.210266 
	C358.455444,178.128876 356.482025,177.353668 354.752014,177.354950 
	C326.256744,177.375977 297.761200,177.421402 269.266479,177.294556 
	C264.581848,177.273712 262.023224,179.004852 260.396942,183.488129 
	C236.611603,249.058563 212.690216,314.579620 188.811630,380.116241 
	C181.573700,399.981354 174.262222,419.820801 167.222809,439.756195 
	C165.528000,444.555756 162.987137,446.479614 157.744095,446.437561 
	C129.417282,446.210541 101.087654,446.342529 72.759018,446.320923 
	C66.211662,446.315948 65.734985,445.523926 68.009132,439.363983 
	C72.218407,427.962372 76.382393,416.544037 80.674416,404.758545 
z"/>
<path fill="#000000" opacity="1.000000" stroke="none" 
	d="
M300.081482,214.660034 
	C321.902618,214.658981 343.238037,214.852646 364.565796,214.532166 
	C370.440704,214.443893 373.115173,216.663055 375.077789,221.997375 
	C392.715515,269.936798 410.563538,317.798950 428.400482,365.664917 
	C437.113190,389.045807 445.936737,412.385406 454.698700,435.747955 
	C455.516327,437.928131 456.257874,440.137054 457.023041,442.336670 
	C457.925537,444.931061 456.846283,446.136963 454.247101,446.237823 
	C453.248352,446.276611 452.247894,446.285675 451.248230,446.286194 
	C425.915863,446.299683 400.583466,446.318939 375.251099,446.316010 
	C367.830170,446.315155 367.380920,446.009735 364.954254,438.830292 
	C354.774597,408.713379 344.636444,378.582428 334.443573,348.470001 
	C333.710754,346.305023 333.321228,343.940063 331.435608,341.982605 
	C328.635254,343.012665 328.449097,345.738739 327.694122,347.935547 
	C317.204163,378.460205 306.682098,408.974548 296.413177,439.573730 
	C294.777771,444.446899 292.369598,446.475647 287.104034,446.428558 
	C261.606903,446.200592 236.106827,446.307556 210.607803,446.280670 
	C203.192184,446.272858 202.615280,445.503754 205.237839,438.543060 
	C218.782761,402.592773 232.363861,366.656097 245.947220,330.720276 
	C259.474487,294.932770 273.003540,259.145905 286.568054,223.372528 
	C289.874084,214.653534 289.939331,214.678268 300.081482,214.660034 
z"/>
</svg>