<svg version="1.1" id="Layer_1" xmlns="http://www.w3.org/2000/svg" xmlns:xlink="http://www.w3.org/1999/xlink" x="0px" y="0px"
	 width="100%" viewBox="0 0 1024 1024" enable-background="new 0 0 1024 1024" xml:space="preserve">
<path fill="#000000" opacity="1.000000" stroke="none" 
	d="
M1.000000,844.468628 
	C3.621597,847.076721 2.624428,851.030518 3.097805,854.470581 
	C7.834421,888.891907 21.605604,919.523560 42.407696,946.919250 
	C62.417400,973.271423 87.849907,993.194580 118.067787,1006.951111 
	C137.683304,1015.880981 158.025330,1021.933289 179.561417,1023.733154 
	C180.184814,1023.785217 180.778229,1024.195801 181.692810,1024.719604 
	C121.739655,1025.000000 61.479309,1025.000000 1.000000,1025.000000 
	C1.000000,964.979309 1.000000,904.958313 1.000000,844.468628 
z"/>
<path fill="#000000" opacity="1.000000" stroke="none" 
	d="
M181.531342,1.000000 
	C176.341766,3.641481 170.089783,3.136655 164.148087,4.304177 
	C131.799438,10.660582 102.772087,23.991280 76.745689,44.267296 
	C45.813000,68.365578 24.926500,99.521263 11.726685,135.999496 
	C6.716269,149.845993 3.229357,164.234985 2.293921,179.080750 
	C2.243999,179.873032 1.840320,180.643036 1.300661,181.711700 
	C1.000000,121.739647 1.000000,61.479286 1.000000,1.000000 
	C61.020718,1.000000 121.041702,1.000000 181.531342,1.000000 
z"/>
<path fill="#000000" opacity="1.000000" stroke="none" 
	d="
M844.468628,1025.000000 
	C849.477844,1022.324585 855.577576,1022.864929 861.357605,1021.806458 
	C895.289795,1015.592285 925.539978,1001.302551 952.060669,979.618591 
	C980.000000,956.774719 1000.173950,928.080750 1012.759094,894.104736 
	C1018.611816,878.304199 1022.028381,861.996216 1024.625977,845.187012 
	C1025.000000,904.927185 1025.000000,964.854431 1025.000000,1025.000000 
	C964.979309,1025.000000 904.958313,1025.000000 844.468628,1025.000000 
z"/>
<path fill="#000000" opacity="1.000000" stroke="none" 
	d="
M1025.000000,181.531342 
	C1022.410217,176.505325 1022.895508,170.423370 1021.814392,164.644180 
	C1015.719116,132.060959 1002.279541,102.925499 981.878784,76.871864 
	C961.291016,50.579563 935.420105,31.076376 905.067749,17.591223 
	C889.163513,10.525169 872.537170,5.417640 855.126221,3.319746 
	C851.860535,2.926253 848.624573,2.285603 845.187500,1.379507 
	C904.927185,1.000000 964.854431,1.000000 1025.000000,1.000000 
	C1025.000000,61.020718 1025.000000,121.041702 1025.000000,181.531342 
z"/>
<path fill="#000000" opacity="1.000000" stroke="none" 
	d="
M461.745911,533.645752 
	C444.210602,581.887207 426.832489,629.770752 409.438934,677.648621 
	C391.193848,727.870728 372.893829,778.072998 354.762085,828.335938 
	C353.415833,832.067932 351.671844,833.443115 347.627441,833.432617 
	C297.963989,833.303650 248.300064,833.362976 198.636261,833.358093 
	C196.996002,833.357910 195.355728,833.193359 193.431610,833.090210 
	C192.972763,829.175842 194.909485,826.110718 196.044373,822.973694 
	C213.201477,775.546936 230.481766,728.164856 247.706909,680.762756 
	C282.786194,584.227478 317.852203,487.687408 352.918732,391.147522 
	C375.879272,327.936096 398.739807,264.688049 421.879150,201.542175 
	C425.625916,191.317505 422.681030,192.688156 434.253357,192.679367 
	C487.750244,192.638718 541.247375,192.718552 594.743835,192.556198 
	C599.304321,192.542374 601.475830,193.870926 603.047852,198.233414 
	C625.843445,261.493652 648.819641,324.688751 671.738831,387.904480 
	C672.291199,389.427948 673.302002,390.893738 672.652039,392.695923 
	C670.618408,393.790344 668.408630,393.327484 666.283630,393.328766 
	C617.286438,393.357849 568.289246,393.393036 519.292297,393.282349 
	C515.039795,393.272736 512.602600,394.437286 511.147827,398.710114 
	C495.748474,443.939209 478.179565,488.377167 461.745911,533.645752 
z"/>
<path fill="#000000" opacity="1.000000" stroke="none" 
	d="
M806.814819,761.334534 
	C815.710693,785.209473 824.452820,808.724182 833.126648,832.055298 
	C830.996155,833.863403 829.091492,833.319336 827.342041,833.320618 
	C782.344360,833.353699 737.346252,833.267700 692.349426,833.463074 
	C687.581482,833.483765 685.781189,831.754700 684.343811,827.475830 
	C666.219910,773.523682 647.921570,719.630005 629.598755,665.744873 
	C628.747681,663.241760 628.692078,660.085083 625.290222,658.609802 
	C622.425110,662.542358 621.573975,667.180664 620.090698,671.490479 
	C602.161377,723.586975 584.260864,775.693665 566.566956,827.870300 
	C565.125427,832.121033 563.196960,833.456970 558.811096,833.442749 
	C513.480591,833.295776 468.149384,833.361023 422.818359,833.342346 
	C421.032623,833.341614 419.152954,833.734863 417.184143,832.400513 
	C418.537415,825.796448 421.518585,819.633789 423.903503,813.313049 
	C453.231079,735.586670 482.674408,657.904053 512.080933,580.207458 
	C526.930786,540.971802 541.846313,501.760590 556.508972,462.455078 
	C558.354309,457.508209 560.700623,455.572449 566.212402,455.606415 
	C606.208740,455.852814 646.207886,455.807739 686.204834,455.607330 
	C690.986450,455.583374 693.231018,457.104950 694.895020,461.578094 
	C730.351257,556.895386 765.952209,652.158875 801.529541,747.431091 
	C803.218384,751.953613 804.949646,756.460266 806.814819,761.334534 
z"/>
</svg>